<?xml version="1.0" encoding="UTF-8" standalone="no"?>
<svg
   xmlns:dc="http://purl.org/dc/elements/1.1/"
   xmlns:cc="http://creativecommons.org/ns#"
   xmlns:rdf="http://www.w3.org/1999/02/22-rdf-syntax-ns#"
   xmlns:svg="http://www.w3.org/2000/svg"
   xmlns="http://www.w3.org/2000/svg"
   width="495.07489"
   height="100.99446"
   viewBox="0 0 130.98856 26.721452"
   version="1.1"
   id="svg914">
  <defs
     id="defs908" />
  <metadata
     id="metadata911">
    <rdf:RDF>
      <cc:Work
         rdf:about="">
        <dc:format>image/svg+xml</dc:format>
        <dc:type
           rdf:resource="http://purl.org/dc/dcmitype/StillImage" />
        <dc:title></dc:title>
      </cc:Work>
    </rdf:RDF>
  </metadata>
  <g
     id="layer1"
     transform="translate(-213.83425,-118.10105)">
    <g
       id="g1664"
       transform="translate(-0.40090429,35.413212)">
      <path
         style="fill:#e7e7e7;stroke-width:0.134067"
         d="m 223.74713,104.14194 v -5.002562 l 0.83792,-0.473251 c 0.71245,-0.402386 2.74939,-1.567278 4.18959,-2.395954 0.22121,-0.127284 0.79434,-0.455154 1.27363,-0.728603 0.47929,-0.27345 0.94831,-0.560911 1.04226,-0.638803 0.43068,-0.357063 0.2552,0.154034 -0.64083,1.866412 -0.53274,1.018094 -1.01277,1.911409 -1.06675,1.985146 -0.054,0.07374 -0.59812,1.099347 -1.20919,2.279135 -0.61107,1.17979 -1.15389,2.2054 -1.20625,2.27914 -0.0524,0.0737 -0.44404,0.79769 -0.87041,1.6088 -1.59027,3.0253 -2.24114,4.2231 -2.29479,4.2231 -0.0303,0 -0.0552,-2.25115 -0.0552,-5.00256 z m 0,-11.149045 c 0,-2.103391 0.0463,-3.824347 0.10295,-3.824347 0.0566,0 0.31302,0.141547 0.56978,0.314548 0.43543,0.293383 0.70706,0.451116 2.37729,1.380452 0.35025,0.194883 0.78764,0.457766 0.97199,0.584185 0.18434,0.126419 0.39689,0.253537 0.47234,0.282485 0.50286,0.192932 2.19043,1.262554 2.10853,1.336435 -0.0554,0.04993 -0.37212,0.241621 -0.70394,0.425978 -0.33181,0.184356 -0.99545,0.561166 -1.47473,0.837355 -0.47929,0.27619 -1.08259,0.622244 -1.34067,0.769011 -0.25808,0.146766 -0.86138,0.493574 -1.34067,0.770684 -0.47929,0.277111 -1.06751,0.603675 -1.30715,0.725699 l -0.43572,0.221862 z"
         id="path1670" />
      <path
         style="fill:#b9b9b9;stroke-width:0.134067"
         d="m 223.59649,109.11099 c -0.15698,-0.29585 -0.48178,-0.90391 -1.55754,-2.91596 -0.29568,-0.55302 -0.88647,-1.66913 -1.31286,-2.48023 -0.4264,-0.81111 -0.89454,-1.68589 -1.04033,-1.94397 -0.14578,-0.25808 -0.68652,-1.28369 -1.20164,-2.279138 -0.51512,-0.995446 -0.98302,-1.870232 -1.03978,-1.943969 -0.18689,-0.242793 -1.33902,-2.522544 -1.33902,-2.649557 0,-0.06836 0.25641,0.02539 0.56979,0.208339 0.31338,0.182947 0.78094,0.452786 1.03901,0.599643 0.25808,0.146856 0.86138,0.493181 1.34067,0.769609 1.69204,0.975877 2.22468,1.279297 3.45065,1.965665 l 1.23855,0.693408 0.0351,5.10539 0.0351,5.10538 0.41135,-0.8044 c 0.22624,-0.44242 0.64089,-1.22671 0.92145,-1.74287 0.28055,-0.51615 0.81215,-1.5116 1.18132,-2.2121 0.36918,-0.7005 0.8667,-1.63561 1.1056,-2.07803 0.42069,-0.77906 1.18646,-2.21649 2.21408,-4.156076 1.53675,-2.90055 1.91025,-3.546837 2.01306,-3.4833 0.23177,0.143243 0.92208,1.501704 1.22505,2.410766 0.26586,0.797709 0.31277,1.20993 0.31277,2.74837 0,1.52202 -0.0481,1.95325 -0.30221,2.71109 -0.70479,2.10171 -1.90684,3.7215 -3.65276,4.92216 -1.27541,0.87709 -2.24288,1.26741 -3.99509,1.61179 -1.1078,0.21773 -1.4696,0.18225 -1.65229,-0.16201 z m -0.58673,-12.695469 c -0.78213,-0.438284 -2.18354,-1.244833 -2.94947,-1.697495 -0.29494,-0.174314 -1.09874,-0.625981 -1.78621,-1.003704 l -1.24995,-0.68677 0.47195,-0.3207 c 0.25957,-0.176386 0.50297,-0.320701 0.54089,-0.320701 0.0379,0 0.62195,-0.331815 1.29787,-0.737367 0.67592,-0.405552 1.2526,-0.737368 1.28151,-0.737368 0.0289,0 0.30418,-0.15883 0.61169,-0.352956 0.64407,-0.406582 1.77837,-1.062591 2.2151,-1.281082 0.29567,-0.147918 0.29975,-0.188929 0.33517,-3.369642 l 0.0358,-3.219902 1.45119,2.268372 c 0.79815,1.247605 1.56062,2.419198 1.69438,2.60354 0.24733,0.340887 1.73036,2.611784 2.88073,4.411151 l 0.63449,0.992447 -0.51499,-0.310606 c -0.28325,-0.170834 -0.78647,-0.457335 -1.11829,-0.636669 -0.33182,-0.179335 -0.66363,-0.374157 -0.73737,-0.432938 -0.0737,-0.05878 -0.37538,-0.241212 -0.67033,-0.405403 -0.29495,-0.16419 -1.21458,-0.683425 -2.04363,-1.153854 -0.82904,-0.47043 -1.53699,-0.855326 -1.57322,-0.855326 -0.0362,0 -0.0819,1.715087 -0.10145,3.811304 l -0.0356,3.811304 z"
         id="path1668" />
      <path
         style="fill:#8a8a8a;stroke-width:0.134067"
         d="m 222.4735,109.32193 c -2.21342,-0.49205 -2.93811,-0.77703 -4.22311,-1.66072 -1.96635,-1.35226 -3.24911,-3.22828 -3.82274,-5.59073 -0.33254,-1.36957 -0.22311,-3.606419 0.24246,-4.956145 0.32769,-0.949991 0.91796,-2.093981 1.15651,-2.241415 0.11511,-0.07114 0.65072,0.866018 2.25664,3.948438 0.40337,0.774236 0.86938,1.649022 1.03557,1.943972 0.1662,0.29494 0.68011,1.26022 1.14202,2.14507 0.46191,0.88484 0.97421,1.85012 1.13844,2.14506 0.16423,0.29495 0.70838,1.32056 1.20922,2.27914 0.50084,0.95858 0.9693,1.81828 1.04103,1.91045 0.0997,0.12813 0.008,0.16392 -0.38874,0.15203 -0.28555,-0.009 -0.63983,-0.0424 -0.7873,-0.0752 z m -4.60069,-17.6892 c 0.46575,-0.729668 0.95472,-1.477031 1.08659,-1.660809 0.38967,-0.543021 1.61482,-2.422434 3.13343,-4.806774 0.78142,-1.226888 1.47331,-2.28802 1.53753,-2.358069 0.0666,-0.07265 0.11677,1.252053 0.11677,3.083737 v 3.2111 l -1.97748,1.112352 c -1.90886,1.073744 -3.15761,1.793146 -4.232,2.438027 l -0.51165,0.307105 z"
         id="path1666" />
    </g>
    <path
       style="fill:#8b8b8b;fill-opacity:1;stroke-width:0.0675842"
       d="m 258.29706,144.38531 c -2.91612,-0.30452 -5.97372,-1.82783 -8.01732,-3.99426 -3.38808,-3.59172 -4.49095,-8.7457 -2.8671,-13.39869 0.11675,-0.33454 0.39205,-0.97613 0.61177,-1.42575 2.64864,-5.41983 8.68487,-8.32203 14.58649,-7.01313 7.59048,1.68347 12.06041,9.55696 9.60807,16.92401 -1.96069,5.89009 -7.69359,9.55824 -13.92191,8.90782 z m -2.71186,-5.83355 c 0.10516,-0.0544 0.2101,-0.14811 0.23319,-0.20828 0.0231,-0.0602 0.042,-0.51949 0.042,-1.0207 0,-0.9137 0.0419,-1.11801 0.26448,-1.28888 0.18475,-0.14185 0.53623,-0.10308 0.71856,0.0793 0.15039,0.15038 0.16589,0.22016 0.16589,0.7465 0,0.52634 0.0155,0.59611 0.16589,0.7465 0.10457,0.10457 0.24311,0.16589 0.37479,0.16589 0.13168,0 0.27021,-0.0613 0.37478,-0.16589 0.14701,-0.14701 0.16589,-0.22432 0.16589,-0.6792 0,-0.53546 0.10654,-0.86072 0.30716,-0.93771 0.4501,-0.17272 0.84177,0.10649 0.84177,0.60007 0,0.23931 0.0379,0.34821 0.16589,0.47616 0.37634,0.37634 0.91546,0.0959 0.91546,-0.47616 0,-0.49358 0.39168,-0.77279 0.84178,-0.60007 0.20061,0.077 0.30715,0.40225 0.30715,0.93771 0,0.45488 0.0189,0.53219 0.16589,0.6792 0.21947,0.21947 0.5301,0.21947 0.74957,0 0.15038,-0.15039 0.16589,-0.22016 0.16589,-0.7465 0,-0.52634 0.0155,-0.59612 0.16589,-0.7465 0.1015,-0.1015 0.24364,-0.16589 0.36619,-0.16589 0.5323,0 0.61685,0.19409 0.61685,1.41591 0,0.85535 0.0132,0.96278 0.13345,1.08299 0.28181,0.28181 0.69133,0.21967 0.88038,-0.13357 0.0501,-0.0937 0.0665,-1.68901 0.0531,-5.1871 l -0.0193,-5.0518 -0.17689,-0.51814 c -0.46537,-1.36316 -1.35928,-2.39689 -2.59406,-2.99981 -0.81982,-0.4003 -1.47334,-0.53065 -2.43304,-0.48531 -1.35119,0.0638 -2.32136,0.49671 -3.28526,1.46579 -0.48073,0.48332 -0.63633,0.69598 -0.89509,1.22332 -0.57397,1.16976 -0.54253,0.8117 -0.56809,6.46944 l -0.0227,5.02011 0.20077,0.20077 c 0.22593,0.22593 0.3364,0.24433 0.61184,0.10189 z m 3.85714,-7.4507 c -0.21254,-0.0777 -0.40551,-0.31788 -0.40551,-0.50473 0,-0.10503 0.0304,-0.1934 0.0676,-0.19638 0.47204,-0.0378 1.44011,-7.8e-4 1.49812,0.0572 0.12205,0.12206 -8.7e-4,0.41691 -0.23273,0.55828 -0.20984,0.12795 -0.69033,0.17229 -0.92747,0.0856 z m -1.89958,-1.46889 c -0.73994,-0.41821 -0.60268,-1.69469 0.20835,-1.93768 0.69545,-0.20836 1.31175,0.69144 0.9903,1.44584 -0.20755,0.48711 -0.78662,0.72472 -1.19865,0.49184 z m 3.66973,-0.0395 c -0.24645,-0.15026 -0.48221,-0.5912 -0.48457,-0.9063 -8.2e-4,-0.10907 0.0639,-0.33326 0.1437,-0.49821 0.11256,-0.23252 0.21291,-0.32986 0.4466,-0.43324 0.28731,-0.12709 0.31519,-0.12807 0.59555,-0.021 0.53943,0.20601 0.76878,0.83435 0.51443,1.40935 -0.23835,0.53884 -0.75547,0.73 -1.21571,0.4494 z"
       id="path1694" />
    <path
       style="fill:#8a8a8a;fill-opacity:1;stroke-width:0.0912021"
       d="m 297.97964,144.23079 c -0.64102,-0.22846 -1.11014,-0.79912 -1.80125,-2.19114 -0.37042,-0.74611 -0.77337,-1.41984 -0.96944,-1.62091 -0.9581,-0.98258 -2.31734,-1.05583 -2.92281,-0.15752 -0.17549,0.26036 -0.20734,0.40277 -0.17286,0.77265 0.036,0.386 0.0934,0.49769 0.38625,0.75079 0.56681,0.48997 1.2244,0.51216 1.64754,0.0555 0.21933,-0.23666 0.29475,-0.73153 0.16358,-1.07333 -0.14683,-0.38264 -1.0671,-0.55241 -1.34284,-0.24771 -0.1568,0.17325 -0.2013,0.55327 -0.0825,0.70484 0.0376,0.048 0.012,0.0393 -0.057,-0.0193 -0.18995,-0.16133 -0.15031,-0.56187 0.0799,-0.80686 0.4118,-0.43835 1.157,-0.3682 1.59299,0.14994 0.18331,0.21784 0.231,0.37384 0.231,0.75564 0,0.84915 -0.58944,1.42192 -1.45923,1.41798 -0.61959,-0.003 -1.09991,-0.27381 -2.00422,-1.13084 -0.96207,-0.91175 -1.42638,-1.17029 -2.4978,-1.39084 -0.43324,-0.0891 -0.78719,-0.18367 -0.78657,-0.20998 0.004,-0.14392 1.44757,-1.09407 2.23332,-1.46934 1.18701,-0.56691 1.81879,-0.72176 2.94482,-0.72176 1.88187,0 3.13644,0.73469 3.69588,2.16434 0.083,0.21224 0.2341,0.84838 0.33568,1.41363 0.10158,0.56525 0.23042,1.17137 0.28632,1.34694 0.14748,0.46318 0.51395,0.9125 0.86336,1.05849 0.40026,0.16724 1.28295,0.16193 1.77211,-0.0101 0.63597,-0.22437 0.52947,-0.074 -0.19271,0.27207 -0.7452,0.35712 -1.31316,0.41184 -1.94343,0.18721 z m 4.77824,-2.18591 c 0,-0.0242 0.0802,-0.24768 0.17834,-0.49654 0.27244,-0.69118 0.3181,-1.2617 0.15266,-1.90748 -0.1947,-0.75997 -0.4678,-1.27906 -1.5293,-2.90685 -1.07184,-1.64364 -1.4082,-2.33303 -1.52744,-3.13053 -0.0843,-0.5637 -0.0215,-1.3873 0.11631,-1.52506 0.0352,-0.0352 0.15455,-0.007 0.26513,0.0642 0.11059,0.0705 0.71367,0.41275 1.34019,0.76043 2.3799,1.3207 3.10493,2.00103 3.55438,3.3352 0.20809,0.61771 0.25162,1.93946 0.0873,2.65237 -0.17953,0.77909 -0.63396,1.57188 -1.26151,2.20075 -0.50243,0.50349 -1.37612,1.10885 -1.37612,0.95348 z m -18.56268,-1.94327 c -0.0783,-0.18811 -0.36348,-0.71138 -0.63375,-1.16283 -0.66318,-1.10776 -0.90301,-1.92861 -0.84813,-2.90283 0.0546,-0.96841 0.22516,-1.31586 1.36281,-2.77525 1.17463,-1.50682 1.57866,-2.31342 1.80683,-3.60707 0.2254,-1.27797 0.38986,-1.75305 0.77406,-2.23621 0.33453,-0.4207 0.4837,-1.00294 0.37147,-1.45007 -0.0347,-0.13811 -0.45572,-0.94919 -0.93569,-1.80241 -1.01633,-1.8067 -0.99317,-1.76308 -0.87197,-1.64251 0.11386,0.11329 1.67976,2.54644 2.10181,3.26589 0.42325,0.72152 0.82183,1.15752 1.05759,1.1569 0.68373,-0.003 1.46515,-0.51783 1.36486,-0.90136 -0.0283,-0.10829 -0.5492,-0.64262 -1.15751,-1.1874 -1.44041,-1.28996 -3.67856,-3.58137 -4.93862,-5.05614 -1.22883,-1.43823 -1.33704,-1.61764 -0.58373,-0.9678 4.41046,3.80456 7.51306,6.57239 7.64443,6.81959 0.12906,0.2428 -0.048,1.09549 -0.29457,1.41877 -0.30991,0.40631 -0.98583,0.74616 -1.82849,0.91934 -0.39544,0.0813 -0.79517,0.18852 -0.88827,0.23835 -0.28202,0.15092 -0.4364,0.57359 -0.53621,1.46801 -0.11363,1.01835 -0.16608,1.1955 -0.74052,2.50126 -0.36212,0.82311 -0.44487,1.10794 -0.44487,1.53126 0,0.82478 0.40753,1.42038 1.45923,2.13266 0.95365,0.64586 1.26187,1.22577 1.10313,2.07551 -0.16342,0.87473 -1.491,1.81571 -3.21228,2.27684 -0.4702,0.12598 -0.88514,0.22915 -0.92209,0.22928 -0.0369,9e-5 -0.13124,-0.15368 -0.20952,-0.34178 z m 7.89206,-3.26887 c 0,-0.0793 0.85168,-0.51366 1.32971,-0.67814 0.29696,-0.10223 1.13502,-0.29221 1.86235,-0.42229 2.18511,-0.39076 2.86058,-0.75193 3.38016,-1.80734 0.27509,-0.5588 0.28831,-0.63239 0.24166,-1.34553 -0.0271,-0.41493 -0.0798,-0.85316 -0.1171,-0.97387 -0.11471,-0.37146 0.12236,-0.13505 0.38659,0.38552 0.51969,1.02386 0.36452,2.22423 -0.39702,3.07125 -0.81075,0.90175 -1.47932,1.13387 -3.81349,1.32404 -0.9029,0.0736 -1.91866,0.21073 -2.25725,0.30482 -0.33858,0.0941 -0.61561,0.15777 -0.61561,0.14154 z m 13.74395,-1.37197 c -0.035,-0.0349 -0.0641,-0.16969 -0.0645,-0.29927 -0.002,-0.42904 -0.40999,-1.13366 -0.9352,-1.61368 -0.58303,-0.53286 -1.36403,-0.93797 -3.63673,-1.8864 -3.24532,-1.35433 -4.26156,-2.31506 -4.35002,-4.11251 l -0.0354,-0.71926 0.31165,0.2377 c 0.64613,0.49283 1.56956,0.75384 3.94969,1.11642 2.92861,0.44614 4.58559,1.54967 5.23894,3.48913 0.25679,0.76229 0.25842,2.05295 0.004,2.85578 -0.21539,0.67859 -0.39266,1.0214 -0.48197,0.93209 z m -15.17925,-5.27999 c -0.44829,-0.314 -0.33633,-1.19791 0.21281,-1.68005 0.26671,-0.23419 0.39202,-0.27813 0.79245,-0.27783 0.56132,2.6e-4 0.99235,0.22635 1.20083,0.62952 0.20542,0.39724 0.17769,0.76331 -0.0759,1.00151 -0.44259,0.4158 -1.72281,0.61222 -2.13024,0.32685 z m 13.9753,-1.74342 c -0.59001,-0.90047 -1.2622,-1.14206 -3.64782,-1.31106 -2.30756,-0.16348 -3.52676,-0.55624 -4.54138,-1.46298 -0.29068,-0.25977 -1.07405,-1.15561 -1.74082,-1.99074 -0.66678,-0.83515 -1.4755,-1.75668 -1.79715,-2.04786 -0.68306,-0.61835 -1.7864,-1.19466 -2.63688,-1.37732 l -0.5928,-0.12732 0.50161,-0.005 c 1.33439,-0.0156 2.54713,0.55145 3.847,1.7991 l 0.88676,0.85113 0.99986,-0.1 c 1.70772,-0.17073 3.37024,0.114 4.81314,0.82431 1.05497,0.51934 1.08148,0.55904 1.08148,1.61969 0,0.65253 -0.0396,0.95192 -0.15342,1.15958 -0.12617,0.2302 -0.13386,0.31933 -0.0433,0.5016 0.12484,0.25137 0.41714,0.3266 0.69377,0.17854 0.22381,-0.11979 0.60305,-0.83688 0.69127,-1.30711 0.0348,-0.18534 0.0894,-0.33596 0.12148,-0.33471 0.11228,0.004 0.90812,1.14318 1.18086,1.68974 0.28443,0.57002 0.61327,1.57301 0.53982,1.64647 -0.0229,0.0229 -0.11449,-0.0694 -0.20346,-0.20521 z m -2.34016,-3.12096 c 0.0175,-0.50734 -0.016,-1.06491 -0.0779,-1.29519 -0.14553,-0.54134 -0.63365,-0.99123 -1.57265,-1.44949 -0.41335,-0.20171 -0.71051,-0.36776 -0.66035,-0.36897 0.0502,-8e-4 0.49149,0.12822 0.98073,0.28763 0.48924,0.15941 0.91838,0.26099 0.95365,0.22572 0.0353,-0.0353 0.0924,-0.36004 0.12693,-0.72172 0.0345,-0.36168 0.11842,-0.79387 0.18638,-0.96042 0.1158,-0.28383 0.12159,-0.25493 0.0922,0.45998 -0.0467,1.13562 0.0613,1.41768 0.87683,2.28903 1.00536,1.07422 1.20896,1.31635 0.96827,1.1515 -0.10599,-0.0726 -0.43432,-0.32691 -0.72961,-0.56514 -0.29529,-0.23823 -0.58633,-0.43317 -0.64676,-0.43321 -0.12,-5e-5 -0.17486,0.26858 -0.24654,1.20717 -0.0258,0.33792 -0.0998,0.71556 -0.16446,0.83918 -0.10171,0.1945 -0.11339,0.10471 -0.0867,-0.66607 z m -10.09118,0.58245 c -1.43248,-0.44714 -2.66232,-2.50455 -2.66232,-4.45386 0,-0.47429 0.0296,-0.6098 0.13339,-0.6098 0.33897,0 1.19411,0.41547 1.51443,0.73582 0.35727,0.35726 0.53579,0.82147 0.95351,2.47946 0.0854,0.3388 0.31191,0.87233 0.50344,1.18561 0.31331,0.5125 0.3334,0.58105 0.20034,0.68363 -0.17387,0.13402 -0.14346,0.135 -0.64279,-0.0209 z"
       id="path1693" />
    <path
       style="fill:#8a8a8a;fill-opacity:1;stroke-width:0.0890763"
       d="m 330.67478,143.92449 c -3.16474,-0.57342 -5.12708,-1.53142 -7.13441,-3.48297 -1.80497,-1.75481 -2.89687,-3.65291 -3.52482,-6.12737 -0.18223,-0.71807 -0.23504,-1.1853 -0.2724,-2.40994 -0.0742,-2.43387 0.25717,-4.01847 1.26583,-6.05232 1.8326,-3.69523 5.27696,-6.22735 9.34998,-6.87363 1.10188,-0.17484 3.4938,-0.11961 4.49571,0.1038 1.0863,0.24223 2.22064,0.65516 3.2222,1.17296 3.52785,1.8239 6.0133,5.28158 6.64126,9.23912 0.17597,1.10896 0.12197,3.51315 -0.10109,4.50155 -0.5446,2.41309 -1.60944,4.39319 -3.30796,6.15127 -1.73041,1.79108 -3.50294,2.82251 -6.00233,3.49272 -0.94785,0.25417 -1.15082,0.27658 -2.71683,0.29993 -0.93085,0.0139 -1.79266,0.007 -1.91514,-0.0151 z m 5.54687,-5.8246 3.80058,-2.18237 0.002,-4.49836 0.002,-4.49835 -0.33331,-0.18364 c -0.18331,-0.10101 -1.92644,-1.09928 -3.8736,-2.21838 l -3.5403,-2.03473 -3.87393,2.21837 -3.87393,2.21838 -10e-4,4.47482 -0.001,4.47482 0.33404,0.21405 c 0.24907,0.15961 5.84,3.37671 7.19291,4.13891 0.098,0.0552 0.22033,0.091 0.27189,0.0796 0.0516,-0.0114 1.80399,-1.00283 3.8943,-2.20313 z m -6.54841,-2.34507 -2.47129,-1.44067 -5.7e-4,-2.85891 c -5.3e-4,-2.61332 0.0128,-2.87029 0.1553,-2.99144 0.20181,-0.17157 4.82177,-2.8346 4.91761,-2.8346 0.0842,0 4.46984,2.51965 4.83625,2.77856 l 0.24496,0.17309 v 2.83057 c 0,2.58591 -0.0135,2.84203 -0.15588,2.96311 -0.25841,0.21969 -4.83664,2.83512 -4.94995,2.82778 -0.0578,-0.004 -1.21722,-0.65512 -2.57643,-1.44749 z"
       id="path1692" />
  </g>
</svg>
